<svg width="16" height="16" viewBox="0 0 16 16" fill="none" xmlns="http://www.w3.org/2000/svg">
<path d="M11.7197 3.21973C12.0126 2.92683 12.4874 2.92683 12.7803 3.21973C13.0732 3.51262 13.0732 3.98738 12.7803 4.28027L9.06055 8L12.7803 11.7197C13.0732 12.0126 13.0732 12.4874 12.7803 12.7803C12.4874 13.0732 12.0126 13.0732 11.7197 12.7803L8 9.06055L4.28027 12.7803C3.98738 13.0732 3.51262 13.0732 3.21973 12.7803C2.92683 12.4874 2.92683 12.0126 3.21973 11.7197L6.93945 8L3.21973 4.28027C2.92683 3.98738 2.92683 3.51262 3.21973 3.21973C3.51262 2.92683 3.98738 2.92683 4.28027 3.21973L8 6.93945L11.7197 3.21973Z" fill="#363E45" fill-opacity="0.32"/>
</svg>